<svg width="94" height="78" viewBox="0 0 94 78" fill="none" xmlns="http://www.w3.org/2000/svg">
<g clip-path="url(#clip0_172_17062)">
<path d="M84.9868 70.4731C84.6339 71.1719 84.7554 71.958 84.5674 72.6976C83.8037 75.6936 81.0471 77.988 77.9781 77.988C56.5268 77.9997 35.0725 78.0026 13.6212 77.988C10.2716 77.9851 7.30671 75.2336 6.841 71.8532C5.99348 65.7184 5.10835 59.5894 4.26372 53.4545C3.51454 47.9952 2.80875 42.533 2.06825 37.0707C1.58519 33.504 1.07321 29.9401 0.575684 26.3733C1.1137 26.2947 1.05874 25.791 1.18312 25.4504C1.59098 24.3352 2.26495 23.4355 3.14718 22.6552C4.7757 21.2139 6.76579 20.9315 8.7877 20.9315C32.4519 20.9082 56.116 20.914 79.7802 20.9257C81.4318 20.9257 83.0777 20.8703 84.7352 21.1033C87.5294 21.4934 89.4298 22.9085 90.4422 25.5581C90.5579 25.8638 90.5203 26.3297 91.0207 26.3733C90.6649 28.9385 90.3092 31.5066 89.9505 34.0717C89.4703 37.4929 88.9786 40.9141 88.51 44.3353C88.1108 47.2586 87.7463 50.1906 87.3472 53.1139C87.0348 55.3966 86.6876 57.6735 86.3666 59.9533C86.1843 61.2344 86.0195 62.5214 85.8488 63.8054C83.6447 61.6159 81.4492 59.4147 79.2248 57.2455C78.736 56.768 79.005 56.4302 79.2595 56.0226C81.6661 52.1996 82.5455 48.0593 81.9727 43.5549C80.7608 34.0251 71.6144 26.8043 62.0805 27.9165C51.8148 29.1161 44.7019 38.2383 45.9891 48.5513C47.0999 57.4551 54.7449 64.3499 63.6512 64.4489C67.5822 64.4926 71.1834 63.3949 74.4087 61.1092C74.8888 60.7686 75.2475 60.5648 75.7797 61.1151C78.8256 64.2596 81.912 67.3605 84.9868 70.4731ZM27.575 67.544C29.8833 67.544 32.1915 67.5614 34.4969 67.5381C36.513 67.5178 37.9593 66.0619 37.9998 64.0296C38.023 62.9057 38.0201 61.7789 37.9998 60.655C37.9651 58.6402 36.542 57.1232 34.5229 57.1057C29.9093 57.0621 25.2927 57.0591 20.6791 57.1086C18.6572 57.129 17.2601 58.6489 17.2282 60.6841C17.2109 61.7731 17.2138 62.862 17.2282 63.951C17.2572 66.1027 18.7035 67.5323 20.8671 67.544C23.1031 67.5556 25.339 67.544 27.575 67.544Z" fill="#B4D4E7"/>
<path d="M6.00195 13.0875C6.32014 10.1176 8.31023 8.26871 11.2404 8.2658C21.914 8.25997 32.5905 8.25124 43.2641 8.28036C44.21 8.28327 44.7769 8.03578 45.2166 7.14481C45.8877 5.78508 46.6918 4.48648 47.5017 3.20536C48.8439 1.07986 50.8398 0.0287594 53.3071 0.0200245C62.3233 -0.0120036 71.3394 -0.00326866 80.3527 0.0142012C83.3118 0.0200245 85.6143 2.38137 85.6172 5.35415C85.6201 7.93096 85.6027 10.5078 85.5911 13.0846C78.3105 13.0817 71.027 13.0729 63.7464 13.0729C44.4992 13.0758 25.252 13.0817 6.00195 13.0875Z" fill="#8FBFDB"/>
<path d="M84.9864 70.4729C81.9116 67.3604 78.8252 64.2595 75.7735 61.1207C75.2413 60.5704 74.8797 60.7742 74.4025 61.1149C71.1772 63.4005 67.576 64.4982 63.645 64.4545C54.7387 64.3555 47.0937 57.4579 45.9829 48.557C44.6957 38.2439 51.8085 29.1218 62.0743 27.9222C71.6082 26.8099 80.7545 34.0308 81.9665 43.5606C82.5393 48.0649 81.6599 52.2023 79.2533 56.0282C78.9987 56.433 78.7297 56.7736 79.2186 57.2511C81.443 59.4203 83.6384 61.6215 85.8426 63.8111C88.255 66.251 90.6819 68.6735 93.0711 71.1397C94.6881 72.811 94.098 75.2422 91.9893 75.743C90.9277 75.9934 90.0976 75.5508 89.3657 74.8229C87.9079 73.3729 86.4471 71.9229 84.9864 70.4729ZM63.9805 33.0991C56.8503 33.0991 51.0044 38.934 50.9899 46.0646C50.9755 53.2884 56.7982 59.2223 63.914 59.2398C71.0528 59.2573 76.9537 53.3524 76.9595 46.184C76.9682 38.9544 71.1599 33.0991 63.9805 33.0991Z" fill="#3D90C1"/>
<path d="M91.0205 26.3763C90.5172 26.3297 90.5577 25.8638 90.442 25.561C89.4267 22.9143 87.5262 21.4993 84.7349 21.1062C83.0775 20.8733 81.4316 20.9286 79.7799 20.9286C56.1158 20.917 32.4516 20.914 8.78746 20.9344C6.76555 20.9373 4.77546 21.2198 3.14694 22.6581C2.2647 23.4384 1.59073 24.3381 1.18288 25.4533C1.0585 25.791 1.11635 26.2977 0.575437 26.3763C0.239899 24.2653 -0.419608 22.1602 0.37585 20.0143C1.35643 17.3677 3.18165 15.7255 5.98455 15.248C32.5239 15.248 59.0662 15.248 85.6056 15.248C89.0709 15.7488 91.5151 18.7216 91.6221 22.2359C91.6626 23.6073 91.2345 24.9962 91.0205 26.3763Z" fill="#F4F8FB"/>
<path d="M85.6054 15.2478C59.066 15.2478 32.5237 15.2478 5.98438 15.2478C5.99016 14.5257 5.99595 13.8065 5.99884 13.0844C25.2489 13.0815 44.4961 13.0757 63.7462 13.0728C71.0268 13.0728 78.3103 13.0786 85.5909 13.0844C85.5967 13.8065 85.6025 14.5286 85.6054 15.2478Z" fill="#0B6AA1"/>
<path d="M27.5746 67.544C25.3386 67.544 23.1026 67.5527 20.8696 67.5411C18.7059 67.5294 17.2596 66.0998 17.2307 63.9481C17.2162 62.8592 17.2134 61.7702 17.2307 60.6812C17.2625 58.646 18.6567 57.129 20.6815 57.1057C25.2952 57.0592 29.9118 57.0621 34.5254 57.1028C36.5444 57.1203 37.9676 58.6402 38.0023 60.6521C38.0225 61.776 38.0254 62.9028 38.0023 64.0267C37.9618 66.059 36.5184 67.5149 34.4994 67.5352C32.1911 67.5615 29.8828 67.544 27.5746 67.544Z" fill="#3D90C1"/>
<path d="M63.9809 33.0991C71.1602 33.0991 76.9685 38.9544 76.9627 46.184C76.9569 53.3554 71.0561 59.2602 63.9172 59.2399C56.7986 59.2224 50.9787 53.2885 50.9932 46.0647C51.0048 38.9341 56.8507 33.0991 63.9809 33.0991Z" fill="#B4D4E7"/>
</g>
<defs>
<clipPath id="clip0_172_17062">
<rect width="94" height="78" fill="white"/>
</clipPath>
</defs>
</svg>
